<svg width="48" height="48" viewBox="0 0 48 48" fill="none" xmlns="http://www.w3.org/2000/svg">
<path d="M22.2435 0.0562925C21.2575 0.122011 19.1916 0.478767 18.0178 0.779193C14.8063 1.61475 11.5478 3.25771 8.86218 5.39824C7.87619 6.18686 6.10141 7.95186 5.29383 8.94702C2.52367 12.3737 0.730103 16.5422 0.119727 21.0204C-0.0399091 22.1845 -0.0399091 25.677 0.119727 26.8411C0.748884 31.4226 2.53306 35.5722 5.4253 39.1398C6.14836 40.0411 7.9607 41.853 8.86218 42.5759C12.4305 45.4675 16.5811 47.2513 21.1636 47.8803C22.328 48.0399 25.8212 48.0399 26.9856 47.8803C31.4648 47.2701 35.6342 45.4769 39.0617 42.7073C40.0571 41.9 41.8224 40.1256 42.6112 39.1398C44.1888 37.1589 45.7289 34.4456 46.574 32.1455C47.3909 29.9111 47.8886 27.3011 47.9825 24.7757C48.2361 18.1288 45.7195 11.7635 40.9773 7.0318C36.0192 2.06539 29.3426 -0.413123 22.2435 0.0562925ZM25.2202 8.70292C25.7649 8.93763 26.3846 9.55726 26.6476 10.1206C26.8448 10.543 26.8448 10.6557 26.8729 15.8286L26.9011 21.1049L32.1785 21.133C37.3526 21.1612 37.4653 21.1612 37.8879 21.3583C38.4513 21.6212 39.0617 22.2315 39.3152 22.7948C39.5969 23.3956 39.5969 24.4659 39.3152 25.0667C39.0617 25.63 38.4513 26.2403 37.8879 26.5031C37.4653 26.7003 37.3526 26.7003 32.1785 26.7285L26.9011 26.7566L26.8729 32.1267C26.8448 37.3936 26.8448 37.5062 26.6476 37.9287C26.3846 38.492 25.7743 39.1022 25.2108 39.3557C24.6099 39.6374 23.5394 39.6374 22.9384 39.3557C22.375 39.1022 21.7646 38.492 21.5016 37.9287C21.3044 37.5062 21.3044 37.3936 21.2763 32.1267L21.2481 26.7566L15.8768 26.7285C10.6088 26.7003 10.4961 26.7003 10.0735 26.5031C9.51012 26.2403 8.89974 25.63 8.6462 25.0667C8.36449 24.4659 8.36449 23.3956 8.6462 22.7948C8.89974 22.2315 9.51012 21.6212 10.0735 21.3583C10.4961 21.1612 10.6088 21.1612 15.8862 21.133L21.2575 21.1049V16.007C21.2575 10.4773 21.2669 10.3928 21.774 9.65114C22.5252 8.57148 24.0089 8.1584 25.2202 8.70292Z" fill="#FEF698"/>
</svg>
